<?xml version="1.0" encoding="UTF-8"?>
<svg xmlns="http://www.w3.org/2000/svg" viewBox="0 0 194.74 49.29">

    <path d="M61.58,20.5h4.01v-4.94c0-5.63,3.96-7.59,7.25-7.59,2.81,0,4.48,1.07,4.48,1.07l-1.92,4.31s-.77-.6-2.05-.6c-.98,0-2.64,.55-2.64,3.07v4.69h4.94v4.6h-4.94v16.11h-5.12V25.1h-4.01v-4.6Z"/>
    <path d="M98.96,30.6c0,5.92-4.77,10.61-10.78,10.61s-10.78-4.69-10.78-10.61,4.77-10.61,10.78-10.61,10.78,4.65,10.78,10.61Zm-5.2,0c0-3.15-2.13-5.84-5.58-5.84s-5.58,2.68-5.58,5.84,2.13,5.84,5.58,5.84,5.58-2.68,5.58-5.84Z"/>
    <path d="M118.07,20v10.58c0,3.15-1.97,5.84-5.15,5.84s-5.15-2.68-5.15-5.84v-10.58h-4.8v10.58c0,5.92,4.4,10.61,9.95,10.61s9.95-4.69,9.95-10.61v-10.58h-4.8Z"/>
    <path d="M141.23,20.62l-1.79,4.6s-1.94-.66-3.32-.25c-.94,.28-1.64,.79-2.17,1.34-.99,1.04-1.46,2.47-1.46,3.9v10.98h-5.11V19.98h4.86v2.34s1.3-2.31,5.05-2.31c1.83,0,3.94,.6,3.94,.6Z"/>
    <path d="M144.68,20.02h5.11v21.19h-5.11V20.02Z"/>
    <path d="M179.65,33.84s2.69,2.9,6.1,2.9c2.09,0,3.84-.6,3.84-1.83,0-1.32-.94-1.58-4.01-2.22-4.01-.85-7.5-2.56-7.5-6.39,0-3.15,3.15-6.31,8.69-6.31,4.56,0,7.59,2.47,7.59,2.47l-2.56,3.75s-2.3-1.75-5.03-1.75c-1.92,0-3.67,.68-3.67,1.92s1.36,1.53,4.77,2.26c4.01,.85,6.86,2.17,6.86,6.35,0,3.45-3.67,6.22-8.82,6.22-5.92,0-9.12-3.67-9.12-3.67l2.86-3.71Z"/>
    <path d="M169.31,20.02v10.58c0,3.15-1.97,5.84-5.15,5.84s-5.15-2.68-5.15-5.84v-10.58h-4.8v10.58c0,5.92,4.4,10.61,9.95,10.61s9.95-4.69,9.95-10.61v-10.58h-4.8Z"/>
    
    <rect x="12.25" y="15.95" width="5.33" height="36.85" transform="translate(-19.94 20.61) rotate(-45)"/>
    <rect x="18.63" y="9.56" width="5.33" height="36.85" transform="translate(-13.55 23.26) rotate(-45)"/>
    <rect x="25.08" y="3.12" width="5.33" height="36.85" transform="translate(-7.11 25.93) rotate(-45)"/>
    <rect x="31.71" y="-3.51" width="5.33" height="36.85" transform="translate(-.48 28.67) rotate(-45)"/>

</svg>